<?xml version="1.0" encoding="utf-8"?>
<svg viewBox="1364.266 -292.569 411.211 411.211" width="411.211" height="411.211" xmlns="http://www.w3.org/2000/svg">
  <defs>
    <linearGradient x1="34.012%" y1="0%" x2="76.373%" y2="76.805%" id="a">
      <stop stop-color="#72B4F5" offset="0"/>
      <stop stop-color="#356EBF" offset="1"/>
    </linearGradient>
  </defs>
  <circle stroke-width="32" cx="1150.748" cy="285.266" r="518.837" style="paint-order: fill; fill: rgb(218, 239, 255);" transform="matrix(0.396282, 0, 0, 0.396282, 1113.851411, -200.009248)"/>
  <circle stroke-width="32" fill="url(#a)" cx="1150.748" cy="285.266" r="496" style="paint-order: fill;" transform="matrix(0.396282, 0, 0, 0.396282, 1113.851411, -200.009248)"/>
  <g transform="matrix(0.511945, 0, 0, 0.511945, 1147.099691, -290.118508)" style="">
    <title>Avion</title>
    <path d="M 655.31 426.323 L 711.595 582.111 C 711.595 582.111 718.632 596.687 726.167 596.687 C 733.702 596.687 845.777 480.093 845.777 480.093 L 970.409 239.37 L 657.319 386.109 L 655.31 426.323 Z" fill="#c8daea" style="paint-order: fill;"/>
    <path d="M 729.939 466.276 L 719.134 581.107 C 719.134 581.107 714.611 616.292 749.789 581.107 C 784.966 545.921 818.637 518.789 818.637 518.789" fill="#a9c6d8" style="paint-order: fill;"/>
    <path d="M 656.326 431.881 L 540.547 394.158 C 540.547 394.158 526.71 388.544 531.165 375.814 C 532.082 373.189 533.933 370.955 539.467 367.117 C 565.121 349.235 1014.295 187.79 1014.295 187.79 C 1014.295 187.79 1026.978 183.516 1034.458 186.359 C 1038.225 187.525 1041.076 190.628 1041.91 194.483 C 1042.72 197.828 1043.057 201.267 1042.914 204.703 C 1042.879 207.676 1042.519 210.431 1042.246 214.752 C 1039.51 258.892 957.643 588.322 957.643 588.322 C 957.643 588.322 952.745 607.598 935.196 608.259 C 926.482 608.539 918.03 605.27 911.772 599.197 C 877.334 569.575 758.304 489.581 732.002 471.989 C 730.804 471.17 730.018 469.874 729.844 468.431 C 729.476 466.576 731.492 464.279 731.492 464.279 C 731.492 464.279 938.754 280.051 944.269 260.711 C 944.696 259.212 943.083 258.473 940.916 259.129 C 927.15 264.193 688.515 414.893 662.177 431.525 C 660.284 432.099 658.279 432.221 656.326 431.881 Z" style="paint-order: fill; fill: rgb(218, 239, 255);"/>
  </g>
</svg>