<?xml version="1.0" encoding="utf-8"?>
<svg viewBox="1255.712 -292.569 628.566 555.433" width="628.566" height="555.433" xmlns="http://www.w3.org/2000/svg">
  <defs>
    <linearGradient gradientUnits="userSpaceOnUse" x1="1085.53" y1="756.379" x2="1085.53" y2="1062.016" id="gradient-0" gradientTransform="matrix(0.140299, -0.404177, 1.789503, 0.621184, -1236.322632, 156.127096)">
      <stop offset="0" style="stop-color: rgba(85, 148, 220, 1)"/>
      <stop offset="1" style="stop-color: rgb(35, 97, 168);"/>
    </linearGradient>
    <linearGradient x1="34.012%" y1="0%" x2="76.373%" y2="76.805%" id="a">
      <stop stop-color="#72B4F5" offset="0"/>
      <stop stop-color="#356EBF" offset="1"/>
    </linearGradient>
  </defs>
  <g style="" transform="matrix(0.926249, 0, 0, 0.926249, 1100.119019, -38.114338)">
    <title>Logo</title>
    <path d="M 223.542 321.196 L 213.086 321.196 L 213.086 291.442 Q 206.078 299.895 196.235 299.895 Q 184.667 299.895 178.326 291.664 Q 171.986 283.433 171.986 269.474 Q 171.986 255.014 179.077 246.588 Q 186.168 238.162 196.902 238.162 Q 206.468 238.162 213.086 244.058 L 213.086 239.497 L 223.542 239.497 Z M 213.086 281.542 L 213.086 253.512 Q 206.301 246.338 197.569 246.338 Q 190.84 246.338 186.808 252.15 Q 182.776 257.961 182.776 269.474 Q 182.776 280.374 186.585 286.019 Q 190.395 291.664 197.124 291.664 Q 205.912 291.664 213.086 281.542 Z M 301.385 274.813 Q 301.385 286.27 293.599 292.387 Q 285.813 298.505 270.964 298.505 L 240.431 298.505 L 240.431 216.973 L 269.462 216.973 Q 282.476 216.973 289.928 222.535 Q 297.381 228.096 297.381 237.773 Q 297.381 249.564 285.646 255.236 Q 293.543 257.238 297.464 262.605 Q 301.385 267.972 301.385 274.813 Z M 251.22 251.121 L 269.351 251.121 Q 278.305 251.121 282.532 248.257 Q 286.758 245.392 286.758 238.719 Q 286.758 232.712 282.643 229.681 Q 278.527 226.65 268.35 226.65 L 251.22 226.65 Z M 251.22 288.828 L 270.852 288.828 Q 290.206 288.828 290.206 274.813 Q 290.206 267.527 285.729 264.163 Q 281.252 260.798 269.462 260.798 L 251.22 260.798 Z M 325.515 298.505 L 315.004 298.505 L 315.004 239.497 L 325.515 239.497 Z M 325.515 228.319 L 315.004 228.319 L 315.004 216.973 L 325.515 216.973 Z M 363.896 298.616 Q 360.448 299.284 356.388 299.284 Q 349.937 299.284 346.933 296.976 Q 343.93 294.668 343.207 291.053 Q 342.484 287.438 342.484 281.209 L 342.484 247.728 L 335.199 247.728 L 335.199 239.497 L 342.484 239.497 L 342.484 224.815 L 352.94 224.815 L 352.94 239.497 L 362.506 239.497 L 362.506 247.728 L 352.94 247.728 L 352.94 281.765 Q 352.94 287.827 354.469 289.467 Q 355.999 291.108 358.668 291.108 Q 361.393 291.108 363.896 290.663 Z M 431.971 226.65 L 404.998 226.65 L 404.998 298.505 L 394.153 298.505 L 394.153 226.65 L 367.402 226.65 L 367.402 216.973 L 431.971 216.973 Z M 467.282 299.895 Q 454.268 299.895 446.37 291.748 Q 438.473 283.6 438.473 269.029 Q 438.473 254.569 446.12 246.366 Q 453.767 238.162 466.114 238.162 Q 478.738 238.162 486.274 246.227 Q 493.81 254.291 493.81 269.029 L 493.81 271.532 L 449.374 271.532 Q 450.041 281.765 455.019 286.715 Q 459.996 291.664 467.282 291.664 Q 472.788 291.664 477.209 288.856 Q 481.63 286.047 481.853 280.875 L 492.698 280.875 Q 491.474 289.996 484.439 294.946 Q 477.404 299.895 467.282 299.895 Z M 482.743 263.301 Q 481.464 254.791 477.014 250.565 Q 472.565 246.338 466.114 246.338 Q 459.829 246.338 455.324 250.537 Q 450.82 254.736 449.596 263.301 Z M 516.038 298.505 L 505.527 298.505 L 505.527 216.973 L 516.038 216.973 Z M 556.589 299.895 Q 543.575 299.895 535.677 291.748 Q 527.78 283.6 527.78 269.029 Q 527.78 254.569 535.427 246.366 Q 543.074 238.162 555.421 238.162 Q 568.045 238.162 575.581 246.227 Q 583.117 254.291 583.117 269.029 L 583.117 271.532 L 538.68 271.532 Q 539.348 281.765 544.325 286.715 Q 549.303 291.664 556.589 291.664 Q 562.094 291.664 566.516 288.856 Q 570.937 286.047 571.16 280.875 L 582.005 280.875 Q 580.781 289.996 573.746 294.946 Q 566.711 299.895 556.589 299.895 Z M 572.05 263.301 Q 570.77 254.791 566.321 250.565 Q 561.872 246.338 555.421 246.338 Q 549.136 246.338 544.631 250.537 Q 540.126 254.736 538.903 263.301 Z M 642.68 293.945 Q 642.68 322.42 616.986 322.42 Q 605.863 322.42 599.439 317.581 Q 593.016 312.742 593.016 304.567 L 603.861 304.567 Q 603.861 314.244 616.875 314.244 Q 624.216 314.244 628.22 310.212 Q 632.224 306.18 632.224 294.389 L 632.224 291.442 Q 625.217 299.895 615.373 299.895 Q 603.805 299.895 597.465 291.664 Q 591.125 283.433 591.125 269.474 Q 591.125 255.014 598.216 246.588 Q 605.307 238.162 616.04 238.162 Q 625.606 238.162 632.224 244.058 L 632.224 239.497 L 642.68 239.497 Z M 632.224 281.542 L 632.224 253.512 Q 625.439 246.338 616.708 246.338 Q 609.978 246.338 605.946 252.15 Q 601.914 257.961 601.914 269.474 Q 601.914 280.374 605.724 286.019 Q 609.533 291.664 616.263 291.664 Q 625.05 291.664 632.224 281.542 Z M 688.823 249.063 Q 686.598 248.396 682.427 248.396 Q 674.418 248.396 668.69 256.794 L 668.69 298.505 L 658.179 298.505 L 658.179 239.497 L 668.69 239.497 L 668.69 247.728 Q 675.308 238.162 684.04 238.162 Q 686.265 238.162 688.823 238.607 Z M 733.492 282.988 L 733.492 269.919 L 726.317 269.919 Q 703.515 269.919 703.515 282.321 Q 703.515 286.826 706.852 289.245 Q 710.189 291.664 715.862 291.664 Q 721.034 291.664 725.872 289.328 Q 730.711 286.993 733.492 282.988 Z M 733.492 292.443 Q 725.483 299.895 712.858 299.895 Q 704.071 299.895 698.398 295.14 Q 692.726 290.385 692.726 282.877 Q 692.726 262.188 728.375 262.188 L 733.492 262.188 Q 733.492 255.848 732.824 252.984 Q 732.157 250.12 729.098 248.229 Q 726.039 246.338 719.365 246.338 Q 705.35 246.338 704.905 256.349 L 694.45 256.349 Q 695.618 238.162 719.922 238.162 Q 731.267 238.162 737.607 242.667 Q 743.947 247.172 743.947 260.353 L 743.947 298.505 L 733.492 298.505 Z M 839.215 298.505 L 828.704 298.505 L 828.704 260.353 Q 828.704 253.012 826.591 249.897 Q 824.477 246.783 819.527 246.783 Q 811.908 246.783 804.567 256.237 L 804.567 298.505 L 794.111 298.505 L 794.111 260.353 Q 794.111 253.012 791.998 249.897 Q 789.885 246.783 784.879 246.783 Q 777.26 246.783 769.974 256.237 L 769.974 298.505 L 759.463 298.505 L 759.463 239.497 L 769.974 239.497 L 769.974 247.005 Q 777.427 238.162 786.492 238.162 Q 799.45 238.162 803.01 248.841 Q 808.905 241.889 813.02 240.026 Q 817.136 238.162 821.085 238.162 Q 839.215 238.162 839.215 259.908 Z" style="fill: url(#gradient-0); white-space: pre;"/>
    <g transform="matrix(0.427835, 0, 0, 0.427835, 14.825811, -174.785522)" style="">
      <circle stroke-width="32" cx="1150.748" cy="285.266" r="518.837" style="paint-order: fill; fill: rgb(218, 239, 255);"/>
      <circle stroke-width="32" fill="url(#a)" cx="1150.748" cy="285.266" r="496" style="paint-order: fill;"/>
      <g transform="matrix(1.291872, 0, 0, 1.291872, 83.900604, -227.386841)" style="">
        <title>Avion</title>
        <path d="M 655.31 426.323 L 711.595 582.111 C 711.595 582.111 718.632 596.687 726.167 596.687 C 733.702 596.687 845.777 480.093 845.777 480.093 L 970.409 239.37 L 657.319 386.109 L 655.31 426.323 Z" fill="#c8daea" style="paint-order: fill;"/>
        <path d="M 729.939 466.276 L 719.134 581.107 C 719.134 581.107 714.611 616.292 749.789 581.107 C 784.966 545.921 818.637 518.789 818.637 518.789" fill="#a9c6d8" style="paint-order: fill;"/>
        <path d="M 656.326 431.881 L 540.547 394.158 C 540.547 394.158 526.71 388.544 531.165 375.814 C 532.082 373.189 533.933 370.955 539.467 367.117 C 565.121 349.235 1014.295 187.79 1014.295 187.79 C 1014.295 187.79 1026.978 183.516 1034.458 186.359 C 1038.225 187.525 1041.076 190.628 1041.91 194.483 C 1042.72 197.828 1043.057 201.267 1042.914 204.703 C 1042.879 207.676 1042.519 210.431 1042.246 214.752 C 1039.51 258.892 957.643 588.322 957.643 588.322 C 957.643 588.322 952.745 607.598 935.196 608.259 C 926.482 608.539 918.03 605.27 911.772 599.197 C 877.334 569.575 758.304 489.581 732.002 471.989 C 730.804 471.17 730.018 469.874 729.844 468.431 C 729.476 466.576 731.492 464.279 731.492 464.279 C 731.492 464.279 938.754 280.051 944.269 260.711 C 944.696 259.212 943.083 258.473 940.916 259.129 C 927.15 264.193 688.515 414.893 662.177 431.525 C 660.284 432.099 658.279 432.221 656.326 431.881 Z" style="paint-order: fill; fill: rgb(218, 239, 255);"/>
      </g>
    </g>
  </g>
</svg>