<?xml version="1.0" encoding="utf-8"?>
<svg viewBox="934.126 849.437 783.809 131.163" width="783.809" height="131.163" xmlns="http://www.w3.org/2000/svg">
  <defs>
    <linearGradient gradientUnits="userSpaceOnUse" x1="1085.53" y1="756.379" x2="1085.53" y2="1062.016" id="gradient-1" gradientTransform="matrix(0.140299, -0.404177, 1.789503, 0.621184, -1236.322632, 156.127096)">
      <stop offset="0" style="stop-color: rgba(85, 148, 220, 1)"/>
      <stop offset="1" style="stop-color: rgb(35, 97, 168);"/>
    </linearGradient>
    <linearGradient x1="34.012%" y1="0%" x2="76.373%" y2="76.805%" id="gradient-3">
      <stop stop-color="#72B4F5" offset="0"/>
      <stop stop-color="#356EBF" offset="1"/>
    </linearGradient>
    <linearGradient x1="34.012%" y1="0%" x2="76.373%" y2="76.805%" id="gradient-2">
      <stop stop-color="#72B4F5" offset="0"/>
      <stop stop-color="#356EBF" offset="1"/>
    </linearGradient>
  </defs>
  <g style="" transform="matrix(0.926249, 0, 0, 0.926249, 778.532715, 674.728699)">
    <title>Logo</title>
    <path d="M 223.542 321.196 L 213.086 321.196 L 213.086 291.442 Q 206.078 299.895 196.235 299.895 Q 184.667 299.895 178.326 291.664 Q 171.986 283.433 171.986 269.474 Q 171.986 255.014 179.077 246.588 Q 186.168 238.162 196.902 238.162 Q 206.468 238.162 213.086 244.058 L 213.086 239.497 L 223.542 239.497 Z M 213.086 281.542 L 213.086 253.512 Q 206.301 246.338 197.569 246.338 Q 190.84 246.338 186.808 252.15 Q 182.776 257.961 182.776 269.474 Q 182.776 280.374 186.585 286.019 Q 190.395 291.664 197.124 291.664 Q 205.912 291.664 213.086 281.542 Z M 301.387 274.813 Q 301.387 286.27 293.601 292.387 Q 285.815 298.505 270.966 298.505 L 240.433 298.505 L 240.433 216.973 L 269.464 216.973 Q 282.478 216.973 289.93 222.535 Q 297.383 228.096 297.383 237.773 Q 297.383 249.564 285.648 255.236 Q 293.545 257.239 297.466 262.605 Q 301.387 267.972 301.387 274.813 Z M 251.222 251.121 L 269.353 251.121 Q 278.307 251.121 282.534 248.257 Q 286.76 245.392 286.76 238.719 Q 286.76 232.712 282.645 229.681 Q 278.529 226.65 268.352 226.65 L 251.222 226.65 Z M 251.222 288.828 L 270.854 288.828 Q 290.208 288.828 290.208 274.813 Q 290.208 267.527 285.731 264.163 Q 281.254 260.798 269.464 260.798 L 251.222 260.798 Z M 325.519 298.505 L 315.008 298.505 L 315.008 239.497 L 325.519 239.497 Z M 325.519 228.319 L 315.008 228.319 L 315.008 216.973 L 325.519 216.973 Z M 363.901 298.616 Q 360.453 299.284 356.393 299.284 Q 349.942 299.284 346.939 296.976 Q 343.935 294.668 343.212 291.053 Q 342.489 287.438 342.489 281.209 L 342.489 247.728 L 335.204 247.728 L 335.204 239.497 L 342.489 239.497 L 342.489 224.815 L 352.945 224.815 L 352.945 239.497 L 362.511 239.497 L 362.511 247.728 L 352.945 247.728 L 352.945 281.765 Q 352.945 287.827 354.474 289.468 Q 356.004 291.108 358.673 291.108 Q 361.399 291.108 363.901 290.663 Z M 431.977 226.65 L 405.004 226.65 L 405.004 298.505 L 394.159 298.505 L 394.159 226.65 L 367.408 226.65 L 367.408 216.973 L 431.977 216.973 Z M 467.29 299.895 Q 454.276 299.895 446.379 291.748 Q 438.481 283.6 438.481 269.029 Q 438.481 254.569 446.129 246.366 Q 453.776 238.162 466.122 238.162 Q 478.747 238.162 486.283 246.227 Q 493.819 254.291 493.819 269.029 L 493.819 271.532 L 449.382 271.532 Q 450.049 281.765 455.027 286.715 Q 460.005 291.664 467.29 291.664 Q 472.796 291.664 477.217 288.856 Q 481.639 286.047 481.861 280.875 L 492.706 280.875 Q 491.483 289.996 484.447 294.946 Q 477.412 299.895 467.29 299.895 Z M 482.751 263.301 Q 481.472 254.791 477.023 250.565 Q 472.574 246.338 466.122 246.338 Q 459.838 246.338 455.333 250.537 Q 450.828 254.736 449.604 263.301 Z M 516.049 298.505 L 505.538 298.505 L 505.538 216.973 L 516.049 216.973 Z M 556.6 299.895 Q 543.586 299.895 535.688 291.748 Q 527.791 283.6 527.791 269.029 Q 527.791 254.569 535.438 246.366 Q 543.085 238.162 555.432 238.162 Q 568.057 238.162 575.592 246.227 Q 583.128 254.291 583.128 269.029 L 583.128 271.532 L 538.692 271.532 Q 539.359 281.765 544.337 286.715 Q 549.314 291.664 556.6 291.664 Q 562.106 291.664 566.527 288.856 Q 570.949 286.047 571.171 280.875 L 582.016 280.875 Q 580.792 289.996 573.757 294.946 Q 566.722 299.895 556.6 299.895 Z M 572.061 263.301 Q 570.782 254.791 566.332 250.565 Q 561.883 246.338 555.432 246.338 Q 549.147 246.338 544.643 250.537 Q 540.138 254.736 538.914 263.301 Z M 642.693 293.945 Q 642.693 322.42 616.999 322.42 Q 605.876 322.42 599.452 317.581 Q 593.029 312.743 593.029 304.567 L 603.874 304.567 Q 603.874 314.244 616.888 314.244 Q 624.229 314.244 628.233 310.212 Q 632.238 306.18 632.238 294.389 L 632.238 291.442 Q 625.23 299.895 615.386 299.895 Q 603.818 299.895 597.478 291.664 Q 591.138 283.433 591.138 269.474 Q 591.138 255.014 598.229 246.588 Q 605.32 238.162 616.054 238.162 Q 625.619 238.162 632.238 244.058 L 632.238 239.497 L 642.693 239.497 Z M 632.238 281.542 L 632.238 253.512 Q 625.453 246.338 616.721 246.338 Q 609.991 246.338 605.959 252.15 Q 601.927 257.961 601.927 269.474 Q 601.927 280.374 605.737 286.019 Q 609.547 291.664 616.276 291.664 Q 625.063 291.664 632.238 281.542 Z M 688.838 249.063 Q 686.613 248.396 682.442 248.396 Q 674.434 248.396 668.705 256.794 L 668.705 298.505 L 658.194 298.505 L 658.194 239.497 L 668.705 239.497 L 668.705 247.728 Q 675.324 238.162 684.055 238.162 Q 686.28 238.162 688.838 238.607 Z M 733.508 282.988 L 733.508 269.919 L 726.334 269.919 Q 703.531 269.919 703.531 282.321 Q 703.531 286.826 706.868 289.245 Q 710.205 291.664 715.878 291.664 Q 721.05 291.664 725.889 289.328 Q 730.727 286.993 733.508 282.988 Z M 733.508 292.443 Q 725.499 299.895 712.875 299.895 Q 704.088 299.895 698.415 295.14 Q 692.742 290.385 692.742 282.877 Q 692.742 262.188 728.391 262.188 L 733.508 262.188 Q 733.508 255.848 732.841 252.984 Q 732.173 250.12 729.114 248.229 Q 726.056 246.338 719.382 246.338 Q 705.367 246.338 704.922 256.349 L 694.466 256.349 Q 695.634 238.162 719.938 238.162 Q 731.283 238.162 737.624 242.667 Q 743.964 247.172 743.964 260.353 L 743.964 298.505 L 733.508 298.505 Z M 839.234 298.505 L 828.722 298.505 L 828.722 260.353 Q 828.722 253.012 826.609 249.897 Q 824.496 246.783 819.546 246.783 Q 811.927 246.783 804.585 256.237 L 804.585 298.505 L 794.13 298.505 L 794.13 260.353 Q 794.13 253.012 792.016 249.897 Q 789.903 246.783 784.898 246.783 Q 777.278 246.783 769.993 256.237 L 769.993 298.505 L 759.481 298.505 L 759.481 239.497 L 769.993 239.497 L 769.993 247.005 Q 777.445 238.162 786.51 238.162 Q 799.469 238.162 803.028 248.841 Q 808.923 241.889 813.039 240.026 Q 817.154 238.162 821.103 238.162 Q 839.234 238.162 839.234 259.908 Z" style="fill: url(#gradient-1); white-space: pre;"/>
    <g transform="matrix(0.131436, 0, 0, 0.131436, 792.147461, 221.928757)" style="">
      <title>icon</title>
      <circle stroke-width="32" cx="1150.748" cy="285.266" r="538.691" style="paint-order: fill; fill: rgb(218, 239, 255);"/>
      <circle stroke-width="32" fill="url(#gradient-3)" cx="1150.748" cy="285.266" r="496" style="paint-order: fill;"/>
      <g transform="matrix(1.291872, 0, 0, 1.291872, 83.900604, -227.386841)" style="">
        <title>Avion</title>
        <path d="M 655.31 426.323 L 711.595 582.111 C 711.595 582.111 718.632 596.687 726.167 596.687 C 733.702 596.687 845.777 480.093 845.777 480.093 L 970.409 239.37 L 657.319 386.109 L 655.31 426.323 Z" fill="#c8daea" style="paint-order: fill;"/>
        <path d="M 729.939 466.276 L 719.134 581.107 C 719.134 581.107 714.611 616.292 749.789 581.107 C 784.966 545.921 818.637 518.789 818.637 518.789" fill="#a9c6d8" style="paint-order: fill;"/>
        <path d="M 656.326 431.881 L 540.547 394.158 C 540.547 394.158 526.71 388.544 531.165 375.814 C 532.082 373.189 533.933 370.955 539.467 367.117 C 565.121 349.235 1014.295 187.79 1014.295 187.79 C 1014.295 187.79 1026.978 183.516 1034.458 186.359 C 1038.225 187.525 1041.076 190.628 1041.91 194.483 C 1042.72 197.828 1043.057 201.267 1042.914 204.703 C 1042.879 207.676 1042.519 210.431 1042.246 214.752 C 1039.51 258.892 957.643 588.322 957.643 588.322 C 957.643 588.322 952.745 607.598 935.196 608.259 C 926.482 608.539 918.03 605.27 911.772 599.197 C 877.334 569.575 758.304 489.581 732.002 471.989 C 730.804 471.17 730.018 469.874 729.844 468.431 C 729.476 466.576 731.492 464.279 731.492 464.279 C 731.492 464.279 938.754 280.051 944.269 260.711 C 944.696 259.212 943.083 258.473 940.916 259.129 C 927.15 264.193 688.515 414.893 662.177 431.525 C 660.284 432.099 658.279 432.221 656.326 431.881 Z" style="paint-order: fill; fill: rgb(218, 239, 255);"/>
      </g>
    </g>
  </g>
</svg>