<?xml version="1.0" encoding="utf-8"?>
<svg viewBox="0 0 500 500" xmlns="http://www.w3.org/2000/svg">
  <defs>
    <linearGradient x1="34.012%" y1="0%" x2="76.373%" y2="76.805%" id="a">
      <stop stop-color="#72B4F5" offset="0"/>
      <stop stop-color="#356EBF" offset="1"/>
    </linearGradient>
    <linearGradient gradientUnits="userSpaceOnUse" x1="1085.53" y1="756.379" x2="1085.53" y2="1062.016" id="gradient-0" gradientTransform="matrix(0.140299, -0.404177, 1.789503, 0.621184, -1236.322632, 156.127096)">
      <stop offset="0" style="stop-color: rgba(85, 148, 220, 1)"/>
      <stop offset="1" style="stop-color: rgb(35, 97, 168);"/>
    </linearGradient>
    <linearGradient gradientUnits="userSpaceOnUse" x1="1085.53" y1="756.379" x2="1085.53" y2="1062.016" id="gradient-1" gradientTransform="matrix(0.140299, -0.404177, 1.789503, 0.621184, -1236.322632, 156.127096)">
      <stop offset="0" style="stop-color: rgba(85, 148, 220, 1)"/>
      <stop offset="1" style="stop-color: rgb(35, 97, 168);"/>
    </linearGradient>
    <linearGradient x1="34.012%" y1="0%" x2="76.373%" y2="76.805%" id="gradient-2">
      <stop stop-color="#72B4F5" offset="0"/>
      <stop stop-color="#356EBF" offset="1"/>
    </linearGradient>
    <linearGradient x1="34.012%" y1="0%" x2="76.373%" y2="76.805%" id="gradient-3">
      <stop stop-color="#72B4F5" offset="0"/>
      <stop stop-color="#356EBF" offset="1"/>
    </linearGradient>
  </defs>
  <title>Telegram_logo</title>
  <g style="" transform="matrix(0.926249, 0, 0, 0.926249, 1328.139893, 199.507828)">
    <title>logo-compact</title>
    <text style="fill: url(#gradient-0); font-family: &quot;Microsoft Sans Serif&quot;; font-size: 113.9px; font-weight: 700; white-space: pre;" x="167.982" y="298.505">qBitTelegram</text>
    <g transform="matrix(0.427835, 0, 0, 0.427835, 14.825811, -174.785522)" style="">
      <title>icon</title>
      <circle stroke-width="32" cx="1150.748" cy="285.266" r="518.837" style="paint-order: fill; fill: rgb(218, 239, 255);"/>
      <circle stroke-width="32" fill="url(#a)" cx="1150.748" cy="285.266" r="496" style="paint-order: fill;"/>
      <g transform="matrix(1.291872, 0, 0, 1.291872, 83.900604, -227.386841)" style="">
        <title>Avion</title>
        <path d="M 655.31 426.323 L 711.595 582.111 C 711.595 582.111 718.632 596.687 726.167 596.687 C 733.702 596.687 845.777 480.093 845.777 480.093 L 970.409 239.37 L 657.319 386.109 L 655.31 426.323 Z" fill="#c8daea" style="paint-order: fill;"/>
        <path d="M 729.939 466.276 L 719.134 581.107 C 719.134 581.107 714.611 616.292 749.789 581.107 C 784.966 545.921 818.637 518.789 818.637 518.789" fill="#a9c6d8" style="paint-order: fill;"/>
        <path d="M 656.326 431.881 L 540.547 394.158 C 540.547 394.158 526.71 388.544 531.165 375.814 C 532.082 373.189 533.933 370.955 539.467 367.117 C 565.121 349.235 1014.295 187.79 1014.295 187.79 C 1014.295 187.79 1026.978 183.516 1034.458 186.359 C 1038.225 187.525 1041.076 190.628 1041.91 194.483 C 1042.72 197.828 1043.057 201.267 1042.914 204.703 C 1042.879 207.676 1042.519 210.431 1042.246 214.752 C 1039.51 258.892 957.643 588.322 957.643 588.322 C 957.643 588.322 952.745 607.598 935.196 608.259 C 926.482 608.539 918.03 605.27 911.772 599.197 C 877.334 569.575 758.304 489.581 732.002 471.989 C 730.804 471.17 730.018 469.874 729.844 468.431 C 729.476 466.576 731.492 464.279 731.492 464.279 C 731.492 464.279 938.754 280.051 944.269 260.711 C 944.696 259.212 943.083 258.473 940.916 259.129 C 927.15 264.193 688.515 414.893 662.177 431.525 C 660.284 432.099 658.279 432.221 656.326 431.881 Z" style="paint-order: fill; fill: rgb(218, 239, 255);"/>
      </g>
    </g>
  </g>
  <title>
    qbittorrent-new-light
  </title>
  <g style="" transform="matrix(0.926249, 0, 0, 0.926249, 406.498657, -39.336678)">
    <title>logo-long</title>
    <text style="font-family: &quot;Microsoft Sans Serif&quot;; font-size: 113.9px; font-weight: 700; white-space: pre; fill: url(#gradient-1);" x="167.982" y="298.505">qBitTelegram</text>
    <g transform="matrix(0.131436, 0, 0, 0.131436, 792.147461, 221.928757)" style="">
      <title>icon</title>
      <circle stroke-width="32" cx="1150.748" cy="285.266" r="538.691" style="paint-order: fill; fill: rgb(218, 239, 255);"/>
      <circle stroke-width="32" fill="url(#gradient-3)" cx="1150.748" cy="285.266" r="496" style="paint-order: fill;"/>
      <g transform="matrix(1.291872, 0, 0, 1.291872, 83.900604, -227.386841)" style="">
        <title>Avion</title>
        <path d="M 655.31 426.323 L 711.595 582.111 C 711.595 582.111 718.632 596.687 726.167 596.687 C 733.702 596.687 845.777 480.093 845.777 480.093 L 970.409 239.37 L 657.319 386.109 L 655.31 426.323 Z" fill="#c8daea" style="paint-order: fill;"/>
        <path d="M 729.939 466.276 L 719.134 581.107 C 719.134 581.107 714.611 616.292 749.789 581.107 C 784.966 545.921 818.637 518.789 818.637 518.789" fill="#a9c6d8" style="paint-order: fill;"/>
        <path d="M 656.326 431.881 L 540.547 394.158 C 540.547 394.158 526.71 388.544 531.165 375.814 C 532.082 373.189 533.933 370.955 539.467 367.117 C 565.121 349.235 1014.295 187.79 1014.295 187.79 C 1014.295 187.79 1026.978 183.516 1034.458 186.359 C 1038.225 187.525 1041.076 190.628 1041.91 194.483 C 1042.72 197.828 1043.057 201.267 1042.914 204.703 C 1042.879 207.676 1042.519 210.431 1042.246 214.752 C 1039.51 258.892 957.643 588.322 957.643 588.322 C 957.643 588.322 952.745 607.598 935.196 608.259 C 926.482 608.539 918.03 605.27 911.772 599.197 C 877.334 569.575 758.304 489.581 732.002 471.989 C 730.804 471.17 730.018 469.874 729.844 468.431 C 729.476 466.576 731.492 464.279 731.492 464.279 C 731.492 464.279 938.754 280.051 944.269 260.711 C 944.696 259.212 943.083 258.473 940.916 259.129 C 927.15 264.193 688.515 414.893 662.177 431.525 C 660.284 432.099 658.279 432.221 656.326 431.881 Z" style="paint-order: fill; fill: rgb(218, 239, 255);"/>
      </g>
    </g>
    <g transform="matrix(0.137488, 0, 0, 0.137488, 785.183472, 220.20256)" style="visibility: hidden;">
      <circle stroke="#DAEFFF" stroke-width="32" fill="url(#gradient-2)" cx="1150.748" cy="285.266" r="496"/>
      <g transform="matrix(1.291872, 0, 0, 1.291872, 83.900604, -227.386841)" style="">
        <title>Avion</title>
        <path d="M 655.31 426.323 L 711.595 582.111 C 711.595 582.111 718.632 596.687 726.167 596.687 C 733.702 596.687 845.777 480.093 845.777 480.093 L 970.409 239.37 L 657.319 386.109 L 655.31 426.323 Z" fill="#c8daea" style=""/>
        <path d="M 729.939 466.276 L 719.134 581.107 C 719.134 581.107 714.611 616.292 749.789 581.107 C 784.966 545.921 818.637 518.789 818.637 518.789" fill="#a9c6d8" style=""/>
        <path d="M 656.326 431.881 L 540.547 394.158 C 540.547 394.158 526.71 388.544 531.165 375.814 C 532.082 373.189 533.933 370.955 539.467 367.117 C 565.121 349.235 1014.295 187.79 1014.295 187.79 C 1014.295 187.79 1026.978 183.516 1034.458 186.359 C 1038.225 187.525 1041.076 190.628 1041.91 194.483 C 1042.72 197.828 1043.057 201.267 1042.914 204.703 C 1042.879 207.676 1042.519 210.431 1042.246 214.752 C 1039.51 258.892 957.643 588.322 957.643 588.322 C 957.643 588.322 952.745 607.598 935.196 608.259 C 926.482 608.539 918.03 605.27 911.772 599.197 C 877.334 569.575 758.304 489.581 732.002 471.989 C 730.804 471.17 730.018 469.874 729.844 468.431 C 729.476 466.576 731.492 464.279 731.492 464.279 C 731.492 464.279 938.754 280.051 944.269 260.711 C 944.696 259.212 943.083 258.473 940.916 259.129 C 927.15 264.193 688.515 414.893 662.177 431.525 C 660.284 432.099 658.279 432.221 656.326 431.881 Z" fill="#fff" style=""/>
      </g>
    </g>
  </g>
</svg>